<svg xmlns="http://www.w3.org/2000/svg" xmlns:xlink="http://www.w3.org/1999/xlink" width="430" height="98" viewBox="0 0 430 98">
  <defs>
    <style>
      .cls-1 {
        fill: #7c829a;
        stroke: rgba(0,0,0,0);
        stroke-miterlimit: 10;
      }

      .cls-2 {
        fill: #fff;
      }

      .cls-3, .cls-5 {
        fill: #0e257c;
      }

      .cls-4 {
        fill: #ffcdcf;
      }

      .cls-5 {
        font-size: 10px;
        font-family: AppleSDGothicNeo-Regular, Apple SD Gothic Neo;
      }

      .cls-6 {
        filter: url(#합치기_15);
        stroke: rgba(0,0,0,0.2);
      }
    </style>
    <filter id="f1" x="0" y="0" width="200%" height="200%">
    <feOffset result="offOut" in="SourceAlpha" dx="20" dy="20" />
    <feGaussianBlur result="blurOut" in="offOut" stdDeviation="10" />
    <feBlend in="SourceGraphic" in2="blurOut" mode="normal" />
    </filter>
    <filter id="합치기_15" x="2" y="0" width="430" height="98" filterUnits="userSpaceOnUse">
      <feOffset dy="2" input="SourceAlpha"/>
      <feGaussianBlur stdDeviation="3" result="blur"/>
      <feFlood flood-opacity="0.102"/>
      <feComposite operator="in" in2="blur"/>
      <feComposite in="SourceGraphic"/>
    </filter>
  </defs>
  <g id="Navigation__HOME" data-name="Navigation_ HOME" transform="translate(9 11)">
    <g class="cls-6" transform="matrix(1, 0, 0, 1, -9, -11)">
      <path id="합치기_15-2" data-name="합치기 15" class="cls-2" d="M0,77V15H175.029a36.512,36.512,0,0,1,62.942,0H412V77Z" transform="translate(9 14)"/>
    </g>
    <path id="합치기_23" data-name="합치기 23" class="cls-1" d="M7401.29,7751.75v-2.529h-5.169v-.671h6v3.2Zm-30.53-.01v-3.19h-3.621v-.669h8.1l.01.669h-3.669v3.19Zm21.59-.01v-4.63h-1.271v4.179h-.77v-8.309h.77v3.449h1.271v-3.649h.79v8.96Zm-15-.19v-2.561h.819v1.891h5.379v.669Zm2.688-1.71v-1.809h-3.729v-.662h8.149v.662h-3.6v1.809Zm5.932-.42v-5.55h.819v4.84a15.576,15.576,0,0,0,2.879-.28l.08.71a16.62,16.62,0,0,1-3.21.28Zm15.318-1.35v-1.29h-2.271a2.337,2.337,0,0,1-1.85.821,2.165,2.165,0,1,1,0-4.321,2.351,2.351,0,0,1,1.86.821h2.261v-1.311l.831-.01v5.29Zm-5.64-2.64a1.527,1.527,0,1,0,1.52-1.449A1.448,1.448,0,0,0,7395.649,7745.419Zm3.831,0a2.41,2.41,0,0,1-.1.681h1.911v-1.35h-1.911A2.386,2.386,0,0,1,7399.48,7745.419Zm-28.291-.338a4.531,4.531,0,0,1-3.258,2.048l-.312-.649c1.561-.23,3.111-1.259,3.111-2.44v-.05H7367.9v-.66h6.55v.66h-2.809v.05c0,1.181,1.548,2.21,3.128,2.44l-.319.649A4.517,4.517,0,0,1,7371.189,7745.081Zm6.181,1.259v-3.15h6.029v3.15Zm.8-.66h4.42v-1.831h-4.42Zm1.625-6.681a2.013,2.013,0,0,1-2.012-2.012v-.546h-1.123a2.013,2.013,0,0,1-2.01-2.012v-18.417a2.012,2.012,0,0,1,2.01-2.011H7390.2a2.014,2.014,0,0,1,2.012,2.011v.547h1.121a2.013,2.013,0,0,1,2.012,2.012v18.417a2.012,2.012,0,0,1-2.012,2.012Zm-.566-2.012a.567.567,0,0,0,.566.568h13.542a.569.569,0,0,0,.568-.568V7718.57a.567.567,0,0,0-.568-.566h-1.121v13.157a.711.711,0,0,1-.167.461l-3.284,3.969c-.016.016-.031.033-.045.048l-.589.59a.726.726,0,0,1-.512.212h-8.391Zm-3.134-20.976v18.417a.567.567,0,0,0,.566.566h9.941l-.123-3.938a.627.627,0,0,1,.626-.649l3.665-.01v-14.387a.567.567,0,0,0-.566-.568H7376.66A.568.568,0,0,0,7376.094,7716.012Zm3.076,11.058a.593.593,0,1,1,0-1.185h6.344a.593.593,0,0,1,0,1.185Zm0-2.465a.593.593,0,1,1,0-1.185h6.344a.593.593,0,0,1,0,1.185Zm0-3.551a.687.687,0,1,1,0-1.373h8.527a.687.687,0,0,1,0,1.373Z" transform="translate(-7098 -7686)"/>
    <path id="합치기_24" data-name="합치기 24" class="cls-1" d="M7395.724,7749.75v-2.021h-5.341v-.659h6.16v2.68Zm-18.551-.01v-8.96h.821v3.68h1.471v.69h-1.471v4.59Zm3.11-1.151v-.679h8.13v.679Zm-8.738-2.91a2.183,2.183,0,1,1,2.168,2.06A2.044,2.044,0,0,1,7371.544,7745.679Zm.768,0a1.405,1.405,0,1,0,1.4-1.389A1.346,1.346,0,0,0,7372.313,7745.679Zm17.16.591v-.662h3.651v-.949h-2.579v-3.651h6.049v.64h-5.23v.85h4.991v.621h-4.991v.9h5.28v.64h-2.7v.949h3.648v.662Zm-8.449-.152v-.669h1.369v-3.12H7381v-.662h6.652v.662h-1.391v3.12h1.369v.669Zm2.19-.669h2.229v-3.12h-2.229Zm-12.181-2.581v-.659h2.26v-1.331h.821v1.331h2.209v.659Zm-.375-6.947a.76.76,0,0,1-.424-.683v-3.5a6.628,6.628,0,0,1-3.234-5.491c0-3.952,4.051-7.165,9.03-7.165.181,0,.362.006.542.014,1.939-3.021,5.913-5.094,10.491-5.094,6.479,0,11.751,4.156,11.751,9.27a8.6,8.6,0,0,1-4.3,7.163v4.806a.75.75,0,0,1-.418.671.733.733,0,0,1-.331.078.756.756,0,0,1-.455-.153l-4.452-3.41a14.168,14.168,0,0,1-1.793.115,14.347,14.347,0,0,1-5.082-.912,10.434,10.434,0,0,1-5.952,1.782,10.827,10.827,0,0,1-1.292-.078l-3.281,2.513a.769.769,0,0,1-.8.078Zm18.862-4.874,3.5,2.676v-3.707a.745.745,0,0,1,.363-.642c2.5-1.494,3.938-3.718,3.938-6.1,0-4.287-4.6-7.774-10.253-7.774a11.218,11.218,0,0,0-8.814,3.8c3.909.786,6.809,3.6,6.809,6.945a6.22,6.22,0,0,1-1.766,4.252,13.189,13.189,0,0,0,5.668.4.94.94,0,0,1,.1-.008A.761.761,0,0,1,7389.52,7731.047Z" transform="translate(-7021.354 -7684)"/>
    <g id="그룹_644" data-name="그룹 644">
      <g id="그룹_589" data-name="그룹 589" transform="translate(195 17.086)">
        <g id="그룹_8" data-name="그룹 8" transform="translate(0 9.525)">
          <path id="패스_7" data-name="패스 7" class="cls-3" d="M353.393-2012.312v-7.893l-6,2.987v4.906a4.031,4.031,0,0,1-4,4.06h0a4.031,4.031,0,0,1-4-4.06v-14.27a4.031,4.031,0,0,1,4-4.06h0a4.031,4.031,0,0,1,4,4.06v4.906l6-2.987v-1.919a4.031,4.031,0,0,1,4-4.06h0a4.031,4.031,0,0,1,4,4.06v14.27a4.031,4.031,0,0,1-4,4.06h0A4.031,4.031,0,0,1,353.393-2012.312Z" transform="translate(-339.389 2030.642)"/>
        </g>
        <ellipse id="타원_18" data-name="타원 18" class="cls-4" cx="3.841" cy="3.841" rx="3.841" ry="3.841" transform="translate(0.049 0)"/>
        <ellipse id="타원_19" data-name="타원 19" class="cls-4" cx="3.841" cy="3.841" rx="3.841" ry="3.841" transform="translate(14.295 0)"/>
      </g>
      <text id="하프디" class="cls-5" transform="translate(206 65)"><tspan x="-12.975" y="0">하프디</tspan></text>
    </g>
    <g id="그룹_643" data-name="그룹 643">
      <path id="합치기_22" data-name="합치기 22" class="cls-1" d="M7392.5,7751.761v-5.35h-2.751v-.681h2.751v-2.959h.819v8.99Zm-18.891-.02v-8.961h.819v3.58h1.48v.681h-1.48v4.7Zm3.109-1.162v-.669h8.14v.669Zm9.7-.99v-5.819h.821v5.13a19.427,19.427,0,0,0,3.87-.372l.111.7a21.015,21.015,0,0,1-4.1.36Zm-19-.759c.37,0,.77,0,1.19-.012v-4.42h-.961v-.66h4.99v.66h-.959v4.311c.469-.029.93-.07,1.37-.13l.06.611a37.1,37.1,0,0,1-5.591.329Zm1.99-.021c.481-.01.981-.029,1.469-.048V7744.4h-1.469Zm8.36-.539v-4.72h6.07v.66H7378.6v1.331h5.039v.65H7378.6v1.418h5.331v.662Zm-9.475-15.478A6.208,6.208,0,1,1,7374.5,7739,6.215,6.215,0,0,1,7368.3,7732.792Zm3.072,3.121a4.422,4.422,0,0,0,6.274,0,3.273,3.273,0,0,0-6.274,0Zm1.685-4.494a1.452,1.452,0,1,0,1.451-1.451A1.452,1.452,0,0,0,7373.052,7731.419Zm9.529,6.255a.778.778,0,0,1,.778-.78,7.787,7.787,0,0,0,7.706-6.751l-.461-.027a.391.391,0,0,1-.278-.638l1.321-1.591a.4.4,0,0,1,.333-.138.384.384,0,0,1,.3.19l1.014,1.731a.382.382,0,0,1,.053.171v.051a.392.392,0,0,1-.057.179.386.386,0,0,1-.333.187.112.112,0,0,1-.023,0l-.313-.018a9.344,9.344,0,0,1-9.264,8.213A.778.778,0,0,1,7382.581,7737.674Zm-1.646-17.466a6.207,6.207,0,0,1,12.414-.1v.208a6.207,6.207,0,0,1-12.414-.1Zm3.07,3.121a4.425,4.425,0,0,0,6.276,0,3.274,3.274,0,0,0-6.276,0Zm1.687-4.492a1.451,1.451,0,1,0,1.451-1.453A1.452,1.452,0,0,0,7385.692,7718.836Zm-16.32,6.552a.387.387,0,0,1-.3-.192l-1.014-1.731a.388.388,0,0,1,.358-.584l.4.023a9.345,9.345,0,0,1,9.249-8.095.779.779,0,0,1,0,1.558,7.786,7.786,0,0,0-7.69,6.63l.375.023a.388.388,0,0,1,.276.638l-1.321,1.589a.391.391,0,0,1-.3.142A.168.168,0,0,1,7369.372,7725.388Z" transform="translate(-7258 -7686)"/>
    </g>
    <path id="합치기_21" data-name="합치기 21" class="cls-1" d="M7374.11,7751.7v-2.42h-5.07v-.63h5.831v3.05Zm3.3-1.7c0-1,.99-1.671,2.891-1.671s2.9.691,2.9,1.671-1.012,1.659-2.9,1.659S7377.41,7750.991,7377.41,7750Zm.79,0c0,.621.78,1.029,2.1,1.029s2.109-.4,2.109-1.029-.79-1.031-2.109-1.031S7378.2,7749.38,7378.2,7750Zm4.13-1.812v-5.229h.761v2.3h1.331v.63h-1.331v2.3Zm-8.22-.019v-5.21h.761v5.21Zm-6.449-.831a3.537,3.537,0,0,0,2.3-3.089v-.93h.771v.9a3.268,3.268,0,0,0,2.278,2.829l-.449.6a4.258,4.258,0,0,1-2.188-2.07,4.338,4.338,0,0,1-2.241,2.369Zm9.009.251v-3.93h3.939v.64h-3.179v2.659h.43a22.287,22.287,0,0,0,3.539-.29l.08.621a26.879,26.879,0,0,1-4.1.3Zm4.939-9.725v-11.25c-5.267-3.941,1.245-11.929,1.319-12.026h0s1.117-1.249,1.945,0h0l.008,3.451s0,0,0,.006v.34l0,1.751,0,.01v17.723c0,.626-.731,1.136-1.638,1.136S7381.61,7738.491,7381.61,7737.865Zm-12.179,0v-13.886a2.935,2.935,0,0,1-2.331-1.64.559.559,0,0,1-.1-.309v-7.286c0-.413.48-.743,1.072-.743s1.072.331,1.072.743v4.311a4.216,4.216,0,0,1,.751-.125v-4.156c0-.41.48-.743,1.074-.743s1.07.333,1.07.743v4.156a4.264,4.264,0,0,1,.739.121v-4.309c0-.411.477-.741,1.068-.741s1.068.331,1.068.741v6.192a1.484,1.484,0,0,1,.02.247v.609a1.584,1.584,0,0,1-.021.256.564.564,0,0,1-.039.179,2.778,2.778,0,0,1-2.167,1.712v13.927c0,.626-.733,1.136-1.638,1.136S7369.431,7738.491,7369.431,7737.865Z" transform="translate(-7332 -7686)"/>
  </g>
</svg>
